<svg xmlns="http://www.w3.org/2000/svg" width="1200" height="1180" viewBox="0 0 1200 1180">
<rect width="1200" height="1180" fill="#f7f5ef"/><g font-family="Arial,sans-serif" fill="#2c3941">
<text x="50" y="32" font-size="21">Sweep27 / observation timing - no measured 3D joint angles or forces</text>
<text x="50" y="70" font-size="18">Visible foot: moving upper junction, stable sole</text><text x="50" y="94" font-size="13">screen Y displacement / px</text>
<path d="M100.0,128V282" stroke="#dbddd6"/><text x="92.0" y="305" font-size="12">0s</text>
<path d="M270.0,128V282" stroke="#dbddd6"/><text x="262.0" y="305" font-size="12">1s</text>
<path d="M440.0,128V282" stroke="#dbddd6"/><text x="432.0" y="305" font-size="12">2s</text>
<path d="M610.0,128V282" stroke="#dbddd6"/><text x="602.0" y="305" font-size="12">3s</text>
<path d="M780.0,128V282" stroke="#dbddd6"/><text x="772.0" y="305" font-size="12">4s</text>
<path d="M950.0,128V282" stroke="#dbddd6"/><text x="942.0" y="305" font-size="12">5s</text>
<path d="M1120.0,128V282" stroke="#dbddd6"/><text x="1112.0" y="305" font-size="12">6s</text>
<path d="M445.6666666666667,128V282" stroke="#c8c7ba" stroke-dasharray="3 5"/>
<path d="M525.0,128V282" stroke="#c8c7ba" stroke-dasharray="3 5"/>
<path d="M610.0,128V282" stroke="#c8c7ba" stroke-dasharray="3 5"/>
<path d="M700.6666666666666,128V282" stroke="#c8c7ba" stroke-dasharray="3 5"/>
<path d="M791.3333333333334,128V282" stroke="#c8c7ba" stroke-dasharray="3 5"/>
<text x="30" y="286.0" font-size="12">-9.3</text>
<text x="30" y="209.0" font-size="12">-4.0</text>
<text x="30" y="132.0" font-size="12">1.2</text>
<polyline points="100.00,145.90 105.67,146.10 111.33,146.10 117.00,146.10 122.67,146.10 128.33,146.24 134.00,146.33 139.67,146.19 145.33,146.19 151.00,146.21 156.67,146.22 162.33,146.52 168.00,146.58 173.67,146.60 179.33,146.45 185.00,146.76 190.67,146.67 196.33,146.69 202.00,146.70 207.67,146.68 213.33,146.81 219.00,146.76 224.67,146.76 230.33,146.77 236.00,146.76 241.67,146.62 247.33,146.41 253.00,146.36 258.67,146.29 264.33,146.32 270.00,146.34 275.67,146.21 281.33,146.61 287.00,146.51 292.67,147.55 298.33,147.36 304.00,149.04 309.67,152.79 315.33,156.84 321.00,170.59 326.67,178.35 332.33,182.44 338.00,186.09 343.67,195.82 349.33,213.76 355.00,221.07 360.67,225.04 366.33,228.88 372.00,236.52 377.67,250.45 383.33,254.46 389.00,256.62 394.67,258.65 400.33,261.00 406.00,263.20 411.67,263.22 417.33,263.04 423.00,263.18 428.67,263.18 434.33,263.18 440.00,262.75 445.67,262.10 451.33,261.35 457.00,260.90 462.67,253.86 468.33,250.30 474.00,246.14 479.67,239.99 485.33,233.01 491.00,226.68 496.67,220.55 502.33,214.31 508.00,208.46 513.67,202.72 519.33,198.15 525.00,194.72 530.67,194.06 536.33,194.15 542.00,198.31 547.67,203.15 553.33,209.61 559.00,218.29 564.67,227.26 570.33,243.27 576.00,246.99 581.67,250.06 587.33,255.49 593.00,260.43 598.67,264.23 604.33,263.64 610.00,263.43 615.67,263.40 621.33,261.44 627.00,252.41 632.67,249.46 638.33,246.84 644.00,241.20 649.67,233.70 655.33,215.23 661.00,207.94 666.67,203.83 672.33,200.51 678.00,195.90 683.67,191.53 689.33,191.76 695.00,192.84 700.67,193.82 706.33,197.19 712.00,212.70 717.67,219.89 723.33,224.49 729.00,229.00 734.67,237.86 740.33,251.93 746.00,256.77 751.67,260.34 757.33,260.68 763.00,261.35 768.67,261.96 774.33,262.15 780.00,262.32 785.67,262.26 791.33,262.19 797.00,262.24 802.67,262.02 808.33,261.91 814.00,260.11 819.67,255.99 825.33,252.31 831.00,246.99 836.67,241.44 842.33,235.20 848.00,227.74 853.67,220.33 859.33,211.92 865.00,204.14 870.67,195.96 876.33,187.16 882.00,180.40 887.67,172.12 893.33,166.15 899.00,160.03 904.67,152.34 910.33,151.22 916.00,150.31 921.67,149.59 927.33,149.38 933.00,148.95 938.67,148.24 944.33,148.48 950.00,148.19 955.67,148.19 961.33,148.18 967.00,148.33 972.67,148.30 978.33,148.40 984.00,148.29 989.67,148.22 995.33,148.31 1001.00,148.31 1006.67,148.20 1012.33,148.16 1018.00,148.14 1023.67,148.11 1029.33,147.96 1035.00,148.00 1040.67,148.02 1046.33,147.92 1052.00,147.94 1057.67,147.94 1063.33,147.94 1069.00,147.94 1074.67,147.94 1080.33,147.93 1086.00,147.86 1091.67,147.87 1097.33,147.95 1103.00,148.26 1108.67,147.69 1114.33,147.35" fill="none" stroke="#bd4549" stroke-width="3"/><text x="680" y="94" font-size="13" fill="#bd4549">Upper junction</text>
<polyline points="100.00,145.90 105.67,146.19 111.33,146.19 117.00,146.19 122.67,146.19 128.33,146.34 134.00,146.44 139.67,146.27 145.33,146.00 151.00,146.03 156.67,146.03 162.33,146.03 168.00,146.03 173.67,146.04 179.33,145.84 185.00,145.95 190.67,145.96 196.33,146.00 202.00,145.97 207.67,146.03 213.33,146.01 219.00,146.05 224.67,146.03 230.33,146.03 236.00,145.98 241.67,146.07 247.33,146.13 253.00,146.19 258.67,146.12 264.33,146.29 270.00,146.00 275.67,146.16 281.33,146.24 287.00,146.20 292.67,146.22 298.33,145.77 304.00,145.96 309.67,146.05 315.33,146.01 321.00,146.07 326.67,146.02 332.33,145.85 338.00,146.19 343.67,146.24 349.33,146.34 355.00,146.59 360.67,146.68 366.33,146.86 372.00,146.86 377.67,147.20 383.33,147.39 389.00,147.39 394.67,147.39 400.33,147.50 406.00,147.49 411.67,147.52 417.33,147.49 423.00,147.38 428.67,147.38 434.33,147.45 440.00,147.43 445.67,147.33 451.33,147.05 457.00,147.05 462.67,146.73 468.33,146.71 474.00,146.67 479.67,146.62 485.33,146.46 491.00,146.63 496.67,146.65 502.33,146.72 508.00,146.70 513.67,146.42 519.33,146.63 525.00,146.61 530.67,146.50 536.33,146.51 542.00,146.51 547.67,146.62 553.33,146.65 559.00,146.78 564.67,146.78 570.33,146.96 576.00,146.85 581.67,147.06 587.33,147.10 593.00,147.16 598.67,147.18 604.33,147.14 610.00,147.08 615.67,147.08 621.33,147.08 627.00,146.90 632.67,146.69 638.33,146.93 644.00,146.92 649.67,146.80 655.33,146.68 661.00,146.69 666.67,146.57 672.33,146.70 678.00,146.70 683.67,146.69 689.33,146.69 695.00,146.69 700.67,146.69 706.33,146.69 712.00,146.97 717.67,146.88 723.33,146.66 729.00,146.72 734.67,146.66 740.33,147.01 746.00,147.27 751.67,147.29 757.33,147.08 763.00,147.11 768.67,147.33 774.33,147.52 780.00,147.58 785.67,147.48 791.33,147.58 797.00,147.58 802.67,147.81 808.33,147.77 814.00,147.62 819.67,147.31 825.33,147.31 831.00,147.46 836.67,147.14 842.33,147.14 848.00,146.79 853.67,146.84 859.33,146.78 865.00,146.78 870.67,146.78 876.33,146.44 882.00,146.69 887.67,146.68 893.33,146.57 899.00,146.45 904.67,146.53 910.33,146.23 916.00,146.41 921.67,146.39 927.33,146.37 933.00,146.36 938.67,146.15 944.33,146.26 950.00,146.25 955.67,146.26 961.33,146.22 967.00,146.15 972.67,146.12 978.33,146.10 984.00,145.98 989.67,146.09 995.33,146.24 1001.00,146.24 1006.67,146.24 1012.33,146.11 1018.00,146.20 1023.67,146.11 1029.33,146.03 1035.00,146.09 1040.67,146.07 1046.33,146.06 1052.00,146.04 1057.67,145.78 1063.33,145.97 1069.00,145.84 1074.67,145.84 1080.33,145.89 1086.00,145.87 1091.67,145.89 1097.33,145.84 1103.00,145.84 1108.67,145.89 1114.33,146.02" fill="none" stroke="#159b82" stroke-width="3"/><text x="900" y="94" font-size="13" fill="#159b82">Sole feature</text>
<text x="50" y="337" font-size="18">Back contour: upper and lower regions move differently</text><text x="50" y="361" font-size="13">screen X displacement / px</text>
<path d="M100.0,395V549" stroke="#dbddd6"/><text x="92.0" y="572" font-size="12">0s</text>
<path d="M270.0,395V549" stroke="#dbddd6"/><text x="262.0" y="572" font-size="12">1s</text>
<path d="M440.0,395V549" stroke="#dbddd6"/><text x="432.0" y="572" font-size="12">2s</text>
<path d="M610.0,395V549" stroke="#dbddd6"/><text x="602.0" y="572" font-size="12">3s</text>
<path d="M780.0,395V549" stroke="#dbddd6"/><text x="772.0" y="572" font-size="12">4s</text>
<path d="M950.0,395V549" stroke="#dbddd6"/><text x="942.0" y="572" font-size="12">5s</text>
<path d="M1120.0,395V549" stroke="#dbddd6"/><text x="1112.0" y="572" font-size="12">6s</text>
<path d="M445.6666666666667,395V549" stroke="#c8c7ba" stroke-dasharray="3 5"/>
<path d="M525.0,395V549" stroke="#c8c7ba" stroke-dasharray="3 5"/>
<path d="M610.0,395V549" stroke="#c8c7ba" stroke-dasharray="3 5"/>
<path d="M700.6666666666666,395V549" stroke="#c8c7ba" stroke-dasharray="3 5"/>
<path d="M791.3333333333334,395V549" stroke="#c8c7ba" stroke-dasharray="3 5"/>
<text x="30" y="553.0" font-size="12">-13.8</text>
<text x="30" y="476.0" font-size="12">-6.0</text>
<text x="30" y="399.0" font-size="12">1.8</text>
<polyline points="100.00,412.77 105.67,412.77 111.33,412.77 117.00,412.77 122.67,412.77 128.33,412.77 134.00,412.77 139.67,412.77 145.33,412.77 151.00,412.77 156.67,412.77 162.33,412.77 168.00,412.77 173.67,412.77 179.33,412.77 185.00,412.77 190.67,412.77 196.33,412.77 202.00,412.77 207.67,412.77 213.33,412.77 219.00,412.77 224.67,412.77 230.33,412.77 236.00,412.77 241.67,412.77 247.33,412.77 253.00,412.77 258.67,412.77 264.33,412.77 270.00,412.77 275.67,412.77 281.33,412.77 287.00,412.77 292.67,412.77 298.33,412.77 304.00,412.77 309.67,422.64 315.33,422.64 321.00,432.51 326.67,442.38 332.33,442.38 338.00,442.38 343.67,452.26 349.33,462.13 355.00,472.00 360.67,481.87 366.33,481.87 372.00,491.74 377.67,501.62 383.33,511.49 389.00,511.49 394.67,521.36 400.33,521.36 406.00,521.36 411.67,521.36 417.33,521.36 423.00,521.36 428.67,521.36 434.33,521.36 440.00,521.36 445.67,521.36 451.33,521.36 457.00,521.36 462.67,501.62 468.33,501.62 474.00,491.74 479.67,491.74 485.33,481.87 491.00,472.00 496.67,472.00 502.33,472.00 508.00,462.13 513.67,462.13 519.33,462.13 525.00,462.13 530.67,462.13 536.33,462.13 542.00,462.13 547.67,462.13 553.33,472.00 559.00,472.00 564.67,481.87 570.33,501.62 576.00,501.62 581.67,511.49 587.33,521.36 593.00,521.36 598.67,531.23 604.33,531.23 610.00,531.23 615.67,521.36 621.33,521.36 627.00,501.62 632.67,501.62 638.33,501.62 644.00,491.74 649.67,481.87 655.33,472.00 661.00,462.13 666.67,462.13 672.33,462.13 678.00,462.13 683.67,462.13 689.33,462.13 695.00,462.13 700.67,462.13 706.33,462.13 712.00,472.00 717.67,481.87 723.33,481.87 729.00,491.74 734.67,491.74 740.33,511.49 746.00,521.36 751.67,521.36 757.33,521.36 763.00,521.36 768.67,521.36 774.33,521.36 780.00,531.23 785.67,531.23 791.33,531.23 797.00,531.23 802.67,521.36 808.33,521.36 814.00,521.36 819.67,511.49 825.33,501.62 831.00,491.74 836.67,491.74 842.33,481.87 848.00,472.00 853.67,462.13 859.33,462.13 865.00,452.26 870.67,442.38 876.33,442.38 882.00,432.51 887.67,422.64 893.33,422.64 899.00,422.64 904.67,412.77 910.33,412.77 916.00,412.77 921.67,412.77 927.33,412.77 933.00,412.77 938.67,412.77 944.33,412.77 950.00,412.77 955.67,412.77 961.33,412.77 967.00,412.77 972.67,412.77 978.33,412.77 984.00,412.77 989.67,412.77 995.33,412.77 1001.00,412.77 1006.67,412.77 1012.33,412.77 1018.00,412.77 1023.67,412.77 1029.33,412.77 1035.00,412.77 1040.67,412.77 1046.33,412.77 1052.00,412.77 1057.67,412.77 1063.33,412.77 1069.00,412.77 1074.67,412.77 1080.33,412.77 1086.00,412.77 1091.67,412.77 1097.33,412.77 1103.00,412.77 1108.67,412.77 1114.33,422.64" fill="none" stroke="#7864b5" stroke-width="3"/><text x="680" y="361" font-size="13" fill="#7864b5">Upper y675</text>
<polyline points="100.00,412.77 105.67,412.77 111.33,412.77 117.00,412.77 122.67,412.77 128.33,412.77 134.00,412.77 139.67,412.77 145.33,412.77 151.00,412.77 156.67,412.77 162.33,412.77 168.00,412.77 173.67,412.77 179.33,412.77 185.00,412.77 190.67,412.77 196.33,412.77 202.00,412.77 207.67,412.77 213.33,412.77 219.00,412.77 224.67,412.77 230.33,412.77 236.00,412.77 241.67,432.51 247.33,412.77 253.00,412.77 258.67,412.77 264.33,412.77 270.00,412.77 275.67,412.77 281.33,412.77 287.00,412.77 292.67,412.77 298.33,412.77 304.00,412.77 309.67,412.77 315.33,422.64 321.00,432.51 326.67,432.51 332.33,432.51 338.00,432.51 343.67,432.51 349.33,432.51 355.00,432.51 360.67,452.26 366.33,452.26 372.00,452.26 377.67,452.26 383.33,452.26 389.00,452.26 394.67,452.26 400.33,452.26 406.00,452.26 411.67,452.26 417.33,452.26 423.00,452.26 428.67,452.26 434.33,452.26 440.00,452.26 445.67,452.26 451.33,452.26 457.00,452.26 462.67,452.26 468.33,452.26 474.00,432.51 479.67,432.51 485.33,432.51 491.00,432.51 496.67,432.51 502.33,412.77 508.00,412.77 513.67,412.77 519.33,412.77 525.00,412.77 530.67,412.77 536.33,412.77 542.00,412.77 547.67,412.77 553.33,412.77 559.00,432.51 564.67,432.51 570.33,452.26 576.00,452.26 581.67,452.26 587.33,452.26 593.00,452.26 598.67,452.26 604.33,452.26 610.00,452.26 615.67,452.26 621.33,452.26 627.00,452.26 632.67,452.26 638.33,452.26 644.00,432.51 649.67,432.51 655.33,412.77 661.00,412.77 666.67,412.77 672.33,412.77 678.00,412.77 683.67,412.77 689.33,412.77 695.00,412.77 700.67,412.77 706.33,412.77 712.00,412.77 717.67,432.51 723.33,432.51 729.00,432.51 734.67,432.51 740.33,452.26 746.00,452.26 751.67,452.26 757.33,452.26 763.00,452.26 768.67,452.26 774.33,452.26 780.00,452.26 785.67,452.26 791.33,452.26 797.00,452.26 802.67,452.26 808.33,452.26 814.00,452.26 819.67,452.26 825.33,452.26 831.00,452.26 836.67,452.26 842.33,452.26 848.00,452.26 853.67,452.26 859.33,452.26 865.00,432.51 870.67,432.51 876.33,432.51 882.00,432.51 887.67,432.51 893.33,432.51 899.00,432.51 904.67,432.51 910.33,432.51 916.00,432.51 921.67,432.51 927.33,432.51 933.00,432.51 938.67,432.51 944.33,432.51 950.00,432.51 955.67,432.51 961.33,432.51 967.00,432.51 972.67,432.51 978.33,432.51 984.00,432.51 989.67,432.51 995.33,432.51 1001.00,432.51 1006.67,432.51 1012.33,432.51 1018.00,432.51 1023.67,432.51 1029.33,432.51 1035.00,432.51 1040.67,432.51 1046.33,432.51 1052.00,432.51 1057.67,432.51 1063.33,432.51 1069.00,432.51 1074.67,432.51 1080.33,432.51 1086.00,432.51 1091.67,432.51 1097.33,432.51 1103.00,432.51 1108.67,432.51 1114.33,432.51" fill="none" stroke="#35728e" stroke-width="3"/><text x="900" y="361" font-size="13" fill="#35728e">Lower y790</text>
<text x="50" y="604" font-size="18">Belly visibility: retain separated cream regions</text><text x="50" y="628" font-size="13">visible area in fixed lower ROI / px2</text>
<path d="M100.0,662V816" stroke="#dbddd6"/><text x="92.0" y="839" font-size="12">0s</text>
<path d="M270.0,662V816" stroke="#dbddd6"/><text x="262.0" y="839" font-size="12">1s</text>
<path d="M440.0,662V816" stroke="#dbddd6"/><text x="432.0" y="839" font-size="12">2s</text>
<path d="M610.0,662V816" stroke="#dbddd6"/><text x="602.0" y="839" font-size="12">3s</text>
<path d="M780.0,662V816" stroke="#dbddd6"/><text x="772.0" y="839" font-size="12">4s</text>
<path d="M950.0,662V816" stroke="#dbddd6"/><text x="942.0" y="839" font-size="12">5s</text>
<path d="M1120.0,662V816" stroke="#dbddd6"/><text x="1112.0" y="839" font-size="12">6s</text>
<path d="M445.6666666666667,662V816" stroke="#c8c7ba" stroke-dasharray="3 5"/>
<path d="M525.0,662V816" stroke="#c8c7ba" stroke-dasharray="3 5"/>
<path d="M610.0,662V816" stroke="#c8c7ba" stroke-dasharray="3 5"/>
<path d="M700.6666666666666,662V816" stroke="#c8c7ba" stroke-dasharray="3 5"/>
<path d="M791.3333333333334,662V816" stroke="#c8c7ba" stroke-dasharray="3 5"/>
<text x="30" y="820.0" font-size="12">1285.6</text>
<text x="30" y="743.0" font-size="12">5872.0</text>
<text x="30" y="666.0" font-size="12">10458.4</text>
<polyline points="100.00,715.24 105.67,715.11 111.33,715.06 117.00,715.03 122.67,715.01 128.33,714.94 134.00,715.04 139.67,715.04 145.33,715.08 151.00,715.14 156.67,715.11 162.33,715.14 168.00,715.13 173.67,715.19 179.33,715.24 185.00,715.13 190.67,715.24 196.33,715.24 202.00,715.23 207.67,715.23 213.33,715.23 219.00,715.34 224.67,715.33 230.33,715.29 236.00,715.29 241.67,715.34 247.33,715.41 253.00,715.50 258.67,715.43 264.33,715.38 270.00,715.43 275.67,715.46 281.33,715.48 287.00,715.45 292.67,715.68 298.33,715.90 304.00,715.83 309.67,716.08 315.33,716.22 321.00,716.52 326.67,718.53 332.33,722.95 338.00,726.54 343.67,737.76 349.33,753.59 355.00,757.37 360.67,758.41 366.33,760.52 372.00,765.21 377.67,778.13 383.33,783.89 389.00,786.34 394.67,788.68 400.33,793.06 406.00,797.58 411.67,797.71 417.33,797.78 423.00,797.74 428.67,797.76 434.33,797.34 440.00,796.74 445.67,795.14 451.33,793.51 457.00,792.27 462.67,782.94 468.33,775.58 474.00,765.98 479.67,753.98 485.33,740.83 491.00,723.00 496.67,706.43 502.33,694.02 508.00,685.88 513.67,683.26 519.33,680.89 525.00,680.51 530.67,680.58 536.33,682.10 542.00,688.58 547.67,696.02 553.33,714.02 559.00,735.78 564.67,752.18 570.33,777.16 576.00,780.77 581.67,785.49 587.33,790.79 593.00,794.97 598.67,797.98 604.33,798.23 610.00,798.01 615.67,796.28 621.33,792.77 627.00,781.79 632.67,776.94 638.33,772.96 644.00,762.39 649.67,749.14 655.33,716.23 661.00,700.96 666.67,694.96 672.33,689.31 678.00,682.64 683.67,679.77 689.33,680.59 695.00,682.14 700.67,683.18 706.33,687.66 712.00,712.17 717.67,732.64 723.33,743.75 729.00,751.81 734.67,766.16 740.33,787.23 746.00,791.77 751.67,794.52 757.33,794.77 763.00,795.96 768.67,797.06 774.33,797.51 780.00,797.21 785.67,797.32 791.33,797.36 797.00,797.11 802.67,795.46 808.33,792.56 814.00,786.97 819.67,778.30 825.33,769.64 831.00,758.22 836.67,743.57 842.33,726.83 848.00,718.75 853.67,713.36 859.33,713.20 865.00,712.79 870.67,712.74 876.33,713.26 882.00,713.78 887.67,714.35 893.33,714.35 899.00,714.74 904.67,715.23 910.33,715.19 916.00,715.21 921.67,715.29 927.33,715.31 933.00,715.23 938.67,715.33 944.33,715.19 950.00,715.16 955.67,715.18 961.33,715.18 967.00,715.23 972.67,715.26 978.33,715.29 984.00,715.26 989.67,715.26 995.33,715.26 1001.00,715.28 1006.67,715.28 1012.33,715.29 1018.00,715.31 1023.67,715.34 1029.33,715.46 1035.00,715.46 1040.67,715.45 1046.33,715.46 1052.00,715.55 1057.67,715.55 1063.33,715.55 1069.00,715.55 1074.67,715.55 1080.33,715.55 1086.00,715.56 1091.67,715.56 1097.33,715.56 1103.00,715.60 1108.67,715.38 1114.33,715.33" fill="none" stroke="#c08a27" stroke-width="3"/><text x="680" y="628" font-size="13" fill="#c08a27">All components</text>
<text x="50" y="871" font-size="18">Tool excursion and recovery</text><text x="50" y="895" font-size="13">collar screen X displacement / px</text>
<path d="M100.0,929V1083" stroke="#dbddd6"/><text x="92.0" y="1106" font-size="12">0s</text>
<path d="M270.0,929V1083" stroke="#dbddd6"/><text x="262.0" y="1106" font-size="12">1s</text>
<path d="M440.0,929V1083" stroke="#dbddd6"/><text x="432.0" y="1106" font-size="12">2s</text>
<path d="M610.0,929V1083" stroke="#dbddd6"/><text x="602.0" y="1106" font-size="12">3s</text>
<path d="M780.0,929V1083" stroke="#dbddd6"/><text x="772.0" y="1106" font-size="12">4s</text>
<path d="M950.0,929V1083" stroke="#dbddd6"/><text x="942.0" y="1106" font-size="12">5s</text>
<path d="M1120.0,929V1083" stroke="#dbddd6"/><text x="1112.0" y="1106" font-size="12">6s</text>
<path d="M445.6666666666667,929V1083" stroke="#c8c7ba" stroke-dasharray="3 5"/>
<path d="M525.0,929V1083" stroke="#c8c7ba" stroke-dasharray="3 5"/>
<path d="M610.0,929V1083" stroke="#c8c7ba" stroke-dasharray="3 5"/>
<path d="M700.6666666666666,929V1083" stroke="#c8c7ba" stroke-dasharray="3 5"/>
<path d="M791.3333333333334,929V1083" stroke="#c8c7ba" stroke-dasharray="3 5"/>
<text x="30" y="1087.0" font-size="12">-204.9</text>
<text x="30" y="1010.0" font-size="12">-89.0</text>
<text x="30" y="933.0" font-size="12">26.9</text>
<polyline points="100.00,946.86 105.67,946.77 111.33,946.77 117.00,946.77 122.67,946.77 128.33,946.77 134.00,946.77 139.67,946.77 145.33,946.77 151.00,946.77 156.67,946.77 162.33,946.77 168.00,946.77 173.67,946.77 179.33,946.77 185.00,946.77 190.67,946.77 196.33,946.77 202.00,946.77 207.67,946.77 213.33,946.77 219.00,946.77 224.67,946.77 230.33,946.77 236.00,946.77 241.67,946.77 247.33,946.77 253.00,946.77 258.67,946.77 264.33,946.77 270.00,946.77 275.67,946.84 281.33,946.84 287.00,946.86 292.67,950.77 298.33,953.25 304.00,955.15 309.67,960.51 315.33,966.78 321.00,981.99 326.67,990.97 332.33,995.62 338.00,999.51 343.67,1008.37 349.33,1024.88 355.00,1033.04 360.67,1036.85 366.33,1040.28 372.00,1047.55 377.67,1056.91 383.33,1059.82 389.00,1061.14 394.67,1062.13 400.33,1063.33 406.00,1064.63 411.67,1064.65 417.33,1064.72 423.00,1064.72 428.67,1064.72 434.33,1064.51 440.00,1063.79 445.67,1062.66 451.33,1061.60 457.00,1060.72 462.67,1053.51 468.33,1048.77 474.00,1042.56 479.67,1035.05 485.33,1025.33 491.00,1017.11 496.67,1008.22 502.33,1001.07 508.00,995.20 513.67,992.29 519.33,989.45 525.00,989.01 530.67,988.87 536.33,989.98 542.00,994.93 547.67,999.73 553.33,1008.86 559.00,1019.96 564.67,1031.83 570.33,1050.56 576.00,1053.48 581.67,1056.70 587.33,1061.01 593.00,1063.72 598.67,1064.80 604.33,1064.77 610.00,1064.96 615.67,1063.51 621.33,1061.11 627.00,1053.48 632.67,1050.80 638.33,1047.75 644.00,1040.59 649.67,1032.28 655.33,1014.27 661.00,1005.39 666.67,1001.83 672.33,998.40 678.00,992.84 683.67,987.80 689.33,987.92 695.00,989.11 700.67,989.74 706.33,993.10 712.00,1006.30 717.67,1016.10 723.33,1021.45 729.00,1027.26 734.67,1038.95 740.33,1052.34 746.00,1056.63 751.67,1059.71 757.33,1060.80 763.00,1062.18 768.67,1064.47 774.33,1064.72 780.00,1064.72 785.67,1065.03 791.33,1065.23 797.00,1064.70 802.67,1063.51 808.33,1060.91 814.00,1057.10 819.67,1051.17 825.33,1045.52 831.00,1038.51 836.67,1030.98 842.33,1022.60 848.00,1014.65 853.67,1006.14 859.33,998.33 865.00,990.92 870.67,983.05 876.33,975.83 882.00,969.08 887.67,963.71 893.33,958.88 899.00,954.71 904.67,949.33 910.33,948.49 916.00,948.03 921.67,947.17 927.33,946.78 933.00,946.87 938.67,946.97 944.33,946.86 950.00,946.86 955.67,946.86 961.33,946.84 967.00,946.86 972.67,946.86 978.33,946.86 984.00,946.86 989.67,946.86 995.33,946.84 1001.00,946.84 1006.67,946.84 1012.33,946.84 1018.00,946.84 1023.67,946.84 1029.33,946.84 1035.00,946.84 1040.67,946.84 1046.33,946.84 1052.00,946.84 1057.67,946.84 1063.33,946.84 1069.00,946.84 1074.67,946.84 1080.33,946.84 1086.00,946.84 1091.67,946.84 1097.33,946.84 1103.00,946.84 1108.67,946.84 1114.33,946.84" fill="none" stroke="#ba5792" stroke-width="3"/><text x="680" y="895" font-size="13" fill="#ba5792">Broom collar</text>
<text x="50" y="1155" font-size="14">The upper foot junction can move because gray body coverage changes. It is not an ankle bone marker.</text>
</g></svg>